<mxfile host="app.diagrams.net" modified="2023-09-12T07:35:38.657Z" agent="Mozilla/5.0 (Windows NT 10.0; WOW64) AppleWebKit/537.36 (KHTML, like Gecko) Chrome/103.0.0.0 Safari/537.36" version="21.6.8" etag="A4lOOY_i-IagGZ4tcNZo" type="github">
  <diagram name="第 1 页" id="vtrk4T7j7g6eLg5kg-tF">
    <mxGraphModel>
      <root>
        <mxCell id="0" />
        <mxCell id="1" parent="0" />
      </root>
    </mxGraphModel>
  </diagram>
</mxfile>
